<?xml version="1.0" encoding="UTF-8" standalone="no"?>
<svg
   width="512"
   height="425"
   viewBox="0 0 512 425"
   version="1.1"
   id="svg24"
   sodipodi:docname="hero.svg"
   inkscape:version="1.2 (dc2aedaf03, 2022-05-15)"
   xmlns:inkscape="http://www.inkscape.org/namespaces/inkscape"
   xmlns:sodipodi="http://sodipodi.sourceforge.net/DTD/sodipodi-0.dtd"
   xmlns="http://www.w3.org/2000/svg"
   xmlns:svg="http://www.w3.org/2000/svg">
  <defs
     id="defs28" />
  <sodipodi:namedview
     id="namedview26"
     pagecolor="#ffffff"
     bordercolor="#000000"
     borderopacity="0.25"
     inkscape:showpageshadow="2"
     inkscape:pageopacity="0.0"
     inkscape:pagecheckerboard="0"
     inkscape:deskcolor="#d1d1d1"
     showgrid="false"
     inkscape:zoom="0.97529412"
     inkscape:cx="166.61641"
     inkscape:cy="145.5971"
     inkscape:window-width="1920"
     inkscape:window-height="1009"
     inkscape:window-x="1796"
     inkscape:window-y="-8"
     inkscape:window-maximized="1"
     inkscape:current-layer="svg24" />
  <path
     d="M 199.032 5.250 C 199.073 12.021, 200.739 14.254, 205.697 14.182 C 211.650 14.095, 218.939 12.150, 224.029 9.289 C 228.977 6.507, 232 6.687, 232 9.764 C 232 12.156, 221.385 17.623, 214.076 18.996 C 211.093 19.556, 208.493 20.174, 208.298 20.369 C 207.929 20.738, 210.774 22.919, 225 33.171 C 234.770 40.212, 238.030 43.445, 242.663 50.687 C 250.161 62.408, 252.969 77.347, 251.062 95.368 C 250.414 101.490, 249.727 107.287, 249.535 108.250 C 249.171 110.083, 251.480 110.618, 253.689 109.213 C 254.386 108.770, 255.557 102.259, 256.520 93.479 L 258.162 78.500 256.831 68.500 C 256.099 63, 255.614 57.263, 255.754 55.750 C 255.893 54.237, 255.570 53, 255.035 53 C 254.500 53, 254.293 52.401, 254.574 51.669 C 254.854 50.937, 254.578 48.125, 253.958 45.419 C 253.339 42.714, 252.635 38.989, 252.393 37.141 C 252.152 35.294, 251.536 33.001, 251.025 32.046 C 250.513 31.091, 249.863 29.227, 249.579 27.905 C 247.142 16.552, 240.580 6.553, 233.071 2.750 L 227.641 -0 213.321 -0 L 199 0 199.032 5.250"
     stroke="none"
     fill="#3d2c1e"
     fill-rule="evenodd"
     id="path16" />
  <path
     d="M 122.104 47.375 C 121.476 48.132, 119.129 49.043, 116.889 49.402 C 107.745 50.864, 96.932 59.352, 92.392 68.631 L 89.760 74.010 90.194 80.006 L 90.628 86.002 93.501 89.001 C 95.776 91.376, 97.225 92, 100.465 92 C 107.887 92, 112 86.927, 112 77.772 C 112 71.846, 110.010 68, 106.943 68 C 104.533 68, 104.535 68.189, 106.996 72.226 C 109.400 76.169, 109.539 80.062, 107.433 84.500 C 104.937 89.761, 100.096 90.070, 97.597 85.129 C 94.125 78.265, 94.843 69.720, 99.449 63.073 C 102.061 59.305, 109.030 54.834, 114.173 53.627 L 116.847 53 115.173 56.250 L 113.500 59.500 113.500 78 L 113.500 96.500 111.609 100.306 C 109.032 105.496, 103.982 109.135, 98.502 109.753 C 90.710 110.631, 88.504 105.825, 93.919 99.766 L 96.837 96.500 101.451 96.597 C 106.528 96.703, 107.121 95.207, 102.600 93.700 C 96.457 91.652, 88.012 98.572, 88.004 105.661 C 87.998 110.095, 92.739 114, 98.126 114 C 105.247 114, 111.122 109.352, 115.191 100.500 L 117.489 95.500 117.671 78.239 C 117.852 60.973, 118.944 54, 121.464 54 C 122.802 54, 125.992 59.720, 126.010 62.151 C 126.015 62.893, 124.795 66.960, 123.299 71.188 L 120.578 78.876 122.539 83.583 C 123.671 86.300, 126.125 89.604, 128.343 91.395 L 132.186 94.500 137.343 94.500 C 148.760 94.500, 155.775 82.704, 149.996 73.225 C 146.347 67.240, 140.710 67.065, 134.750 72.751 C 130.803 76.516, 131.155 83, 135.307 83 C 136.935 83, 137.133 82.733, 136.200 81.800 C 133.038 78.638, 137.530 72, 142.832 72 C 146.385 72, 147.605 73.343, 148.525 78.267 C 151.291 93.068, 129.722 95.807, 124.922 81.264 L 123.786 77.822 126.919 71.024 C 128.642 67.286, 130.112 62.631, 130.186 60.681 C 130.337 56.658, 127.723 52.002, 124.898 51.263 C 123.854 50.990, 123 50.158, 123 49.415 C 123 48.624, 123.622 48.302, 124.500 48.638 C 125.450 49.003, 126 48.625, 126 47.607 C 126 45.640, 123.660 45.500, 122.104 47.375 M 200 59.008 C 200 59.664, 199.198 59.880, 198.080 59.525 C 193.786 58.163, 186.916 70.018, 188.930 75.315 C 189.502 76.820, 190.657 78.315, 191.498 78.638 C 193.484 79.400, 196.038 77.262, 195.334 75.427 C 194.578 73.457, 196.011 73.633, 197.519 75.694 L 198.758 77.389 201.379 75.671 C 202.820 74.727, 204 73.289, 204 72.477 C 204 70.696, 202.828 70.572, 201.217 72.183 C 199.100 74.300, 198.740 72.212, 200.388 67.376 C 202.243 61.930, 202.419 59.377, 201 58.500 C 200.450 58.160, 200 58.389, 200 59.008 M 182.506 62.636 L 180.870 64.273 181.552 70.636 C 182.025 75.062, 181.893 77, 181.116 77 C 180.502 77, 180 76.325, 180 75.500 C 180 72.888, 176.279 73.759, 175.756 76.494 C 175.091 79.973, 176.968 81.256, 180.779 79.927 C 184.575 78.604, 186.067 74.835, 185.033 69.182 C 184.618 66.912, 184.575 65.237, 184.937 65.461 C 186.252 66.274, 188.276 64.161, 187.677 62.601 C 186.886 60.540, 184.587 60.556, 182.506 62.636 M 171.985 65.015 C 170.808 66.192, 170.069 67.737, 170.342 68.449 C 171.353 71.083, 172.202 79, 171.474 79 C 171.059 79, 170.136 78.213, 169.421 77.250 L 168.122 75.500 166.463 77.133 L 164.805 78.767 165.938 80.883 C 167.316 83.458, 169.089 83.567, 171.907 81.250 C 174.219 79.349, 175.088 73.296, 173.640 69.186 L 172.825 66.872 174.662 67.186 C 175.916 67.400, 176.500 66.891, 176.500 65.583 C 176.500 62.807, 174.451 62.549, 171.985 65.015 M 194.020 66.960 C 191.571 71.760, 191.271 74.850, 193.427 73.060 C 195.201 71.589, 198.216 63, 196.960 63 C 196.454 63, 195.132 64.782, 194.020 66.960 M 157.608 69.054 C 154.666 72.550, 153.245 80.047, 154.853 83.578 C 157.097 88.501, 161.463 85.199, 163.599 76.963 C 165.847 68.299, 162.245 63.544, 157.608 69.054 M 157.980 74.075 C 156.775 78.548, 156.986 81.500, 158.509 81.500 C 159.897 81.500, 162.162 74.085, 161.454 71.856 C 160.501 68.851, 159.155 69.711, 157.980 74.075 M 54.113 100.583 C 51.395 104.039, 51.388 109.289, 54.091 116.514 C 55.740 120.922, 58.435 124.469, 66.841 133.301 C 76.996 143.971, 79.624 146.053, 79.400 143.250 C 79.345 142.563, 79.233 141.100, 79.150 140 C 78.977 137.698, 77 137.239, 77 139.500 C 77 140.325, 76.550 141, 76 141 C 75.450 141, 75 140.018, 75 138.818 C 75 137.442, 72.061 133.626, 67.036 128.477 C 62.655 123.989, 58.605 119.092, 58.036 117.594 C 56.520 113.608, 56.771 107.772, 58.568 105.207 C 60.480 102.477, 60.093 98.633, 57.863 98.209 C 56.963 98.037, 55.275 99.106, 54.113 100.583 M 73.750 119.897 C 72.787 120.871, 72 122.432, 72 123.366 C 72 126.333, 74.805 131.915, 77.595 134.501 C 80.940 137.601, 85 137.875, 85 135 C 85 133.900, 84.550 133, 84 133 C 83.450 133, 83 132.502, 83 131.893 C 83 131.284, 83.642 131.032, 84.427 131.334 C 86.302 132.053, 88.203 129.692, 87.410 127.627 C 86.626 125.584, 85 125.499, 85 127.500 C 85 130.431, 83.088 128.927, 80.313 123.815 C 77.125 117.939, 76.220 117.399, 73.750 119.897 M 32.971 122.031 C 30.284 124.907, 27.906 130.663, 26.507 137.679 C 25.670 141.870, 27.458 151.235, 30.183 156.935 C 33.655 164.199, 45.140 174.897, 54.826 179.889 C 59.406 182.250, 62.968 184.366, 62.742 184.592 C 61.976 185.357, 46.880 181.058, 40.884 178.367 C 35.222 175.826, 30.245 171.070, 27.470 165.549 C 25.938 162.499, 23.926 163.058, 21.818 167.118 C 19.173 172.216, 18.306 178.452, 19.201 185.947 C 21.234 202.981, 29.283 213.987, 39.715 213.996 C 51.151 214.006, 57.042 197.702, 47.689 191.927 C 43.454 189.313, 40.092 188.508, 38.800 189.800 C 38.061 190.539, 38.969 191.184, 41.836 191.956 C 48.802 193.832, 51.105 200.054, 46.841 205.475 L 44.681 208.221 40.675 207.683 C 30.723 206.348, 23.067 195.991, 22.257 182.768 C 21.990 178.421, 22.290 174.294, 23.001 172.500 L 24.192 169.500 25.786 172 C 28.932 176.934, 39.085 186.107, 43.487 187.994 C 48.981 190.350, 57.752 196.728, 61.309 200.955 C 66.715 207.380, 67.205 218.226, 62.351 223.995 C 58.541 228.523, 54.070 227.945, 52.063 222.665 C 50.369 218.210, 50.795 216.051, 54 212.846 C 57.639 209.207, 57.665 209, 54.485 209 C 47.907 209, 45.880 222.134, 51.545 228.047 C 54.948 231.598, 59.003 231.905, 63.810 228.974 C 73.628 222.989, 71.226 204.683, 59.205 193.874 C 56.185 191.159, 50.206 187.591, 43.650 184.592 C 35.680 180.946, 33 179.252, 33 177.860 C 33 175.272, 34.123 175.520, 38.612 179.099 C 44.492 183.787, 49.189 185.867, 56.868 187.184 L 63.838 188.379 65.398 187.085 C 68.158 184.794, 65.508 182.412, 53.510 176.398 C 42.901 171.080, 40.022 169, 43.268 169 C 43.965 169, 46.106 170.067, 48.025 171.371 C 49.944 172.675, 53.444 174.068, 55.802 174.467 L 60.089 175.191 65.431 172.578 C 73.445 168.657, 75.125 162.197, 70.001 155.002 C 67.687 151.752, 60.592 148, 56.761 148 C 53.280 148, 48 152.534, 48 155.524 C 48 159.199, 49.704 162.771, 52.059 164.032 C 55.419 165.830, 56.422 163.745, 53.513 161.012 C 48.933 156.709, 51.244 152, 57.937 152 C 62.555 152, 66.676 154.979, 68.674 159.763 L 70.106 163.189 68.501 165.639 C 62.357 175.015, 42.308 168.886, 34.243 155.166 L 31.500 150.500 31.509 142 C 31.515 135.740, 31.989 132.632, 33.307 130.207 C 35.448 126.265, 39.224 124.514, 42.176 126.094 L 44.221 127.189 43.757 133.344 C 43.502 136.730, 42.937 140.333, 42.501 141.351 C 41.872 142.821, 42.093 143.129, 43.574 142.843 C 45.711 142.432, 47.804 136.588, 47.923 130.700 C 48.130 120.480, 39.237 115.323, 32.971 122.031 M 76.004 125.110 C 76.006 126.425, 77.003 129.075, 78.220 131 L 80.432 134.500 80.770 132.373 C 80.955 131.203, 79.958 128.553, 78.553 126.484 L 76 122.721 76.004 125.110 M 63.667 137.667 C 61.130 140.203, 65.463 147.637, 71.209 150.608 C 76.658 153.426, 79.112 149.657, 74.952 144.861 L 72.904 142.500 73.531 145.750 C 74.171 149.064, 73.063 150.042, 71.263 147.750 C 70.723 147.063, 69.990 144.968, 69.635 143.095 C 68.678 138.060, 65.848 135.485, 63.667 137.667 M 29.306 249.415 L 26.500 251.830 26.579 257.165 C 26.685 264.375, 30.163 271.973, 35.688 277.066 C 42.792 283.615, 47.259 285.083, 63.090 286.074 C 80.812 287.184, 82.983 288.068, 85.951 295.380 C 88.312 301.196, 89.793 302.159, 92.101 299.378 L 93.447 297.756 90.724 292.877 C 88.926 289.657, 88 286.523, 88 283.657 C 88 278.255, 84.619 271.619, 79.961 267.878 C 75.399 264.214, 68.470 262.405, 64.690 263.892 C 60.658 265.477, 62.307 267, 68.056 267 L 72.994 267 76.990 270.610 C 79.588 272.957, 81.373 275.668, 82.093 278.360 C 82.702 280.637, 83.623 283.571, 84.138 284.879 C 85.403 288.091, 84.597 288.597, 82.136 286.136 C 79.440 283.440, 74.341 282.166, 59.692 280.529 C 45.938 278.992, 42.713 278.019, 38.658 274.186 C 33.075 268.908, 29.586 258.511, 31.929 254.133 C 33.730 250.767, 38.309 251.302, 41.389 255.238 C 43.225 257.583, 44.225 258.175, 45.018 257.382 C 47.158 255.242, 38.098 247, 33.605 247 C 32.784 247, 30.849 248.087, 29.306 249.415 M 73 247.800 C 73 248.240, 73.563 249.198, 74.250 249.928 L 75.500 251.256 71 250.473 C 68.525 250.043, 65.150 249.648, 63.500 249.595 L 60.500 249.500 60.848 252 C 61.322 255.412, 62.801 256.999, 67.500 259.137 C 72.648 261.478, 76.196 261.471, 79.107 259.115 L 81.435 257.229 80.095 255.615 C 79.358 254.727, 78.023 253.964, 77.128 253.921 C 76.091 253.871, 75.954 253.659, 76.750 253.338 C 78.338 252.697, 78.367 249.767, 76.800 248.200 C 75.444 246.844, 73 246.586, 73 247.800 M 253.206 253.048 C 250.700 254.053, 248 259.458, 248 263.468 C 248 264.861, 247.550 266, 247 266 C 245.444 266, 245.823 269.147, 247.619 271.131 C 249.582 273.300, 248.731 278, 246.375 278 C 245.502 278, 243.924 279.098, 242.868 280.441 C 241.812 281.783, 240.128 283.142, 239.126 283.460 C 236.671 284.239, 234.943 288.272, 233.965 295.500 C 233.519 298.800, 232.853 302.889, 232.485 304.586 C 232.008 306.784, 232.279 308.137, 233.427 309.284 L 235.038 310.895 234.638 329.198 C 234.417 339.264, 233.717 350.200, 233.080 353.500 C 232.444 356.800, 231.857 361.287, 231.777 363.470 L 231.630 367.440 234.065 368.013 L 236.500 368.585 237.193 373.542 C 237.574 376.269, 237.922 382.906, 237.968 388.292 L 238.051 398.083 240.051 398.823 C 241.392 399.319, 238.868 399.991, 232.403 400.858 C 227.096 401.571, 215.046 404.089, 205.627 406.455 C 189.527 410.500, 153.998 420.745, 153.083 421.607 C 151.142 423.438, 156.369 422.381, 171.157 417.952 C 196.862 410.253, 220.943 404.426, 235.315 402.427 L 248.065 400.654 255.782 401.748 C 260.027 402.350, 268.675 404.107, 275 405.652 L 286.500 408.462 311 408.421 C 329.704 408.390, 340.113 407.850, 355 406.138 C 378.422 403.445, 399.984 400.350, 400.765 399.568 C 402.155 398.179, 399.759 398.185, 390.459 399.596 C 364.877 403.477, 336.611 406.085, 316 406.466 C 304.175 406.684, 296.457 406.556, 298.850 406.182 L 303.200 405.500 301.078 402.815 C 299.911 401.338, 299.062 399.763, 299.191 399.315 C 299.320 398.867, 298.852 397.466, 298.152 396.202 L 296.878 393.904 298.111 388.393 L 299.344 382.883 302.516 381.558 L 305.688 380.233 305.248 377.237 C 304.820 374.317, 306.627 360.039, 307.541 359.125 C 309.241 357.426, 310.847 365.243, 309.879 370.500 C 309.474 372.700, 308.872 375.197, 308.541 376.049 C 308.123 377.128, 309.135 378.269, 311.873 379.808 L 315.805 382.018 317.066 387.259 C 318.539 393.383, 318.538 393.370, 317.617 398.250 L 316.909 402 319.705 401.970 C 323.449 401.930, 331.387 395.172, 330.476 392.799 C 330.101 391.822, 328.500 390.985, 326.665 390.807 L 323.500 390.500 323.332 383.500 C 323.240 379.650, 322.836 372.105, 322.434 366.732 L 321.704 356.965 323.240 353.732 C 326.992 345.837, 327.158 343.823, 325.454 326.809 C 324.555 317.839, 323.485 309.842, 323.076 309.039 C 322.666 308.235, 320.794 306.731, 318.915 305.697 C 313.797 302.879, 313.626 302.465, 316.423 299.668 L 319 297.091 318.978 290.295 C 318.954 283.108, 317.669 280.343, 313.316 278.117 C 310.545 276.700, 306.319 276.675, 305.456 278.071 C 305.065 278.704, 303.307 278.897, 301.147 278.543 L 297.500 277.945 295 281.648 L 292.500 285.351 292.158 293.925 C 291.970 298.641, 291.408 302.927, 290.908 303.450 C 289.494 304.929, 289.839 307, 291.500 307 C 292.325 307, 293 306.507, 293 305.904 C 293 305.302, 293.980 303.433, 295.177 301.751 L 297.355 298.693 296.159 291.721 C 295.268 286.526, 295.252 284.402, 296.095 283.386 C 297.953 281.146, 298.831 282.717, 298.342 287.408 L 297.882 291.821 301.441 294.660 C 303.398 296.222, 305 298.328, 305 299.340 C 305 301.174, 301.399 304.877, 299.500 304.996 C 298.173 305.079, 292 310.728, 292 311.859 C 292 313.567, 288.010 321.747, 286.610 322.909 C 285.832 323.554, 284.931 325.139, 284.607 326.431 C 284.283 327.722, 283.314 329.049, 282.453 329.380 C 280.564 330.104, 278.283 325.210, 276.960 317.597 C 275.991 312.021, 273.907 304.994, 271.993 300.849 C 271.320 299.390, 270.022 295.340, 269.110 291.849 L 267.452 285.500 263.726 283.742 C 259.809 281.894, 259.051 279.750, 261.371 277.079 C 263.331 274.821, 267 264.431, 267 261.137 C 267 258.015, 263.995 254.700, 259.685 253.067 C 256.417 251.829, 256.244 251.828, 253.206 253.048 M 65 253.891 C 65 254.886, 72.215 258, 74.520 258 C 77.833 258, 75.672 255.980, 70.818 254.539 C 64.724 252.729, 65 252.760, 65 253.891 M 262.411 310.370 C 262.052 311.308, 262.582 314.870, 263.589 318.287 C 264.942 322.876, 265.479 328.422, 265.644 339.500 C 265.767 347.750, 265.930 354.500, 266.006 354.500 C 266.082 354.500, 266.330 360.095, 266.556 366.934 C 266.941 378.577, 267.843 382.681, 269.446 380.087 C 270.746 377.984, 274.025 378.935, 275.084 381.722 C 276.310 384.946, 274.878 389, 272.512 389 C 271.669 389, 270.210 389.900, 269.268 391 C 267.652 392.888, 262.134 393.800, 260.743 392.410 C 260.418 392.085, 260.732 390.172, 261.440 388.160 C 262.771 384.378, 262.487 382.401, 259.009 371.250 L 257.683 367 252.842 367 L 248 367 248 364 C 248 357.654, 246.246 361.452, 244.516 371.543 L 242.709 382.085 243.948 386.221 C 244.629 388.495, 246.050 391.963, 247.105 393.928 L 249.022 397.500 246.761 398.066 C 245.464 398.391, 247.698 398.894, 252 399.244 C 256.125 399.581, 265.633 401.238, 273.128 402.928 C 280.624 404.618, 288.274 405.948, 290.128 405.884 C 291.983 405.820, 292.679 405.556, 291.677 405.297 C 290.424 404.973, 290.072 404.305, 290.552 403.163 C 292.197 399.248, 292.684 393.486, 291.979 386.282 C 291.437 380.754, 291.608 377.297, 292.582 374.060 C 293.451 371.173, 293.927 364.616, 293.903 355.867 C 293.882 348.344, 294.285 341.358, 294.799 340.344 C 297.017 335.960, 297.848 331.510, 297.304 326.920 C 296.670 321.562, 295 320.164, 295 324.990 L 295 327.980 289.500 331.631 C 286.317 333.745, 284 336.021, 284 337.035 C 284 340.205, 281.395 339.868, 278.574 336.333 C 276.708 333.995, 275.987 332.158, 276.366 330.710 C 276.716 329.371, 275.621 325.844, 273.464 321.358 C 271.559 317.397, 270 313.446, 270 312.578 C 270 311.598, 269.128 311, 267.700 311 C 266.435 311, 264.875 310.475, 264.233 309.833 C 263.343 308.943, 262.910 309.071, 262.411 310.370"
     stroke="none"
     fill="#000000"
     fill-rule="evenodd"
     id="path18" />
  <path
     d="M 315.894 88.487 C 297.032 92.074, 280.197 100.923, 265.757 114.844 L 257 123.285 257 127.628 L 257 131.972 261 134.619 L 265 137.266 265 140.713 L 265 144.161 261.078 145.702 C 256.200 147.618, 256.650 149.319, 262.640 151.606 L 267.103 153.311 266.801 155.905 L 266.500 158.500 263.500 158.293 C 261.850 158.180, 258.587 157.559, 256.250 156.913 C 252.859 155.977, 252 155.286, 252 153.492 C 252 152.256, 252.675 150.685, 253.500 150 C 255.416 148.410, 255.423 146.376, 253.515 145.644 C 252.662 145.317, 251.615 145.851, 251.053 146.900 C 250.440 148.046, 248.495 148.939, 245.835 149.295 L 241.593 149.864 240.240 147.932 C 239.348 146.659, 237.713 146, 235.443 146 L 232 146 232 148.402 C 232 150.188, 232.793 151.081, 235.090 151.882 C 239.470 153.408, 238.299 155.564, 233.263 155.245 L 229.241 154.991 225.621 158.998 C 223.629 161.202, 222 163.403, 222 163.888 C 222 164.373, 218.822 166.691, 214.938 169.037 C 209.837 172.120, 206.366 175.234, 202.438 180.254 C 199.447 184.077, 197 188.039, 197 189.060 C 197 190.080, 195.345 192.171, 193.322 193.707 C 191.300 195.243, 187.262 198.691, 184.350 201.369 L 179.056 206.238 179.670 212.119 C 180.354 218.657, 180.076 218.894, 174.468 216.551 L 171 215.102 171 211.404 L 171 207.706 159.073 208.255 L 147.146 208.805 141.263 211.941 L 135.379 215.077 132.702 220.535 C 128.958 228.170, 128.431 232.739, 130.850 236.604 C 132.390 239.064, 133.687 239.829, 137.092 240.286 L 141.391 240.862 149.050 235.465 L 156.709 230.067 157.894 232.666 L 159.078 235.265 157.068 239.328 C 155.962 241.563, 155.157 243.461, 155.279 243.547 C 155.400 243.632, 157.975 244.107, 161 244.601 L 166.500 245.500 166.743 249 C 166.877 250.925, 167.507 254.845, 168.144 257.711 L 169.301 262.923 173.900 263.492 C 176.430 263.805, 179.850 264.214, 181.500 264.400 L 184.500 264.739 189.378 258.811 C 192.526 254.986, 194.771 253.082, 195.710 253.442 C 196.509 253.749, 198.700 254, 200.579 254 C 203.083 254, 205.036 254.942, 207.899 257.528 L 211.803 261.055 216.152 260.409 C 218.543 260.053, 221.045 259.079, 221.711 258.244 L 222.922 256.725 226.087 258.036 C 227.828 258.757, 230.813 261.519, 232.720 264.174 C 235.359 267.847, 236.822 269.003, 238.844 269.014 C 240.305 269.021, 242.455 269.284, 243.623 269.597 L 245.746 270.167 246.428 266.333 C 248.371 255.404, 252.371 250.891, 258.731 252.454 C 267.217 254.541, 268.822 258.419, 265.461 268.717 C 264.083 272.938, 262.280 277.139, 261.454 278.051 C 259.388 280.334, 260.453 282.423, 264.257 283.552 C 266.657 284.264, 267.681 285.309, 268.371 287.750 L 269.289 291 277.512 291 L 285.734 291 288.611 295.250 L 291.487 299.500 292.098 291.381 C 292.519 285.779, 293.296 282.439, 294.604 280.604 L 296.500 277.946 299.952 278.296 C 301.850 278.488, 304.633 278.032, 306.136 277.282 L 308.869 275.919 312.304 277.354 C 317.555 279.548, 319 282.367, 319 290.418 L 319 297.391 316.385 300.120 L 313.770 302.850 318.838 305.418 L 323.907 307.986 324.413 311.243 C 324.691 313.034, 325.393 320.893, 325.973 328.706 C 327.090 343.750, 326.355 350.846, 323.332 354.186 L 321.777 355.904 322.585 366.202 C 323.029 371.866, 323.273 379.538, 323.126 383.250 L 322.859 390 325.807 390 C 329.130 390, 331.516 392.214, 330.643 394.487 C 330.324 395.319, 330.308 396, 330.608 396 C 331.551 396, 353.040 375.052, 363.915 363.532 C 376.634 350.058, 396.814 325.143, 393.197 327.378 C 392.344 327.906, 392 326.966, 392 324.109 C 392 321.307, 393.045 318.365, 395.473 314.334 L 398.947 308.568 397.420 306.237 C 396.580 304.955, 393.639 299.765, 390.885 294.703 L 385.877 285.500 386.741 277.750 L 387.604 270 382.196 270 C 377.887 270, 376.185 269.492, 373.818 267.500 C 369.877 264.184, 364.537 264.135, 361.055 267.383 L 358.500 269.765 347 270.409 L 335.500 271.053 329.500 264.327 C 326.200 260.628, 322.038 256.047, 320.250 254.147 L 317 250.693 317 242.882 L 317 235.070 318.878 234.065 C 319.910 233.513, 320.979 231.889, 321.253 230.458 C 321.646 228.403, 321.256 227.668, 319.403 226.963 C 316.656 225.919, 315.242 221.618, 316.964 219.543 C 317.617 218.757, 322.615 214.825, 328.072 210.806 L 337.992 203.500 337.996 198.110 C 338 192.269, 338.515 191.546, 345.210 187.977 C 347.809 186.592, 350.862 186, 355.403 186 C 360.146 186, 362.820 185.449, 365.366 183.946 C 368.449 182.128, 380.592 180.083, 388.700 180.018 L 390.900 180 391.200 185.653 L 391.500 191.306 399.500 193.137 C 403.900 194.145, 408.281 195.426, 409.236 195.984 C 412.206 197.721, 414 197.184, 414 194.559 C 414 191.571, 414.637 191.149, 420.323 190.369 L 424.811 189.754 428.432 192.516 C 430.424 194.035, 433.842 195.605, 436.027 196.005 L 440 196.731 440 188.866 L 440 181 438.196 181 C 437.204 181, 434.954 179.516, 433.196 177.702 C 430.771 175.200, 430 173.512, 430 170.702 C 430 163.799, 425.027 167.010, 422.956 175.250 C 422.300 177.863, 421.478 179.992, 421.131 179.982 C 420.784 179.972, 419.038 178.202, 417.250 176.049 C 414.870 173.183, 413.988 171.112, 413.955 168.317 L 413.910 164.500 408.973 160.184 C 404.444 156.225, 400.250 154.604, 397.363 155.697 C 396.531 156.012, 396.512 157.057, 397.289 159.591 C 398.105 162.248, 399.588 163.762, 403.655 166.089 C 409.444 169.401, 410.567 170.532, 409.016 171.490 C 408.457 171.835, 408 173.426, 408 175.024 C 408 178.318, 405.723 180, 401.266 180 C 398.541 180, 396 178.478, 396 176.845 C 396 176.430, 397.580 175.794, 399.511 175.432 C 401.442 175.070, 403.232 174.434, 403.489 174.018 C 403.745 173.603, 400.763 171.141, 396.862 168.547 C 392.960 165.953, 389.543 162.968, 389.268 161.915 C 388.646 159.538, 388.135 159.548, 385 162 C 383.617 163.082, 380.925 163.965, 378.974 163.978 L 375.448 164 370.352 170.810 C 367.549 174.556, 364.960 178.549, 364.600 179.684 L 363.946 181.746 356.044 182.436 C 349.878 182.974, 347.494 182.790, 345.191 181.599 L 342.240 180.072 341.565 174.677 C 340.637 167.250, 341.530 164.437, 345.312 162.871 C 348.114 161.710, 354.948 161.414, 360.500 162.212 C 362.027 162.432, 362.575 161.850, 362.816 159.750 C 363.042 157.786, 362.685 157, 361.566 157 C 359.842 157, 359.731 156.261, 360.635 150.795 L 361.247 147.091 366.565 145.986 L 371.884 144.882 375.469 139.481 L 379.053 134.081 382.603 133.415 C 384.555 133.049, 388.143 133.022, 390.576 133.355 L 395 133.962 394.985 130.731 C 394.963 126.064, 393.756 124.525, 391.193 125.897 C 387.747 127.741, 386.094 127.160, 384.598 123.581 C 383.646 121.302, 382.391 120.051, 380.835 119.831 C 377.546 119.365, 377.204 115.491, 380.168 112.266 C 381.450 110.870, 384.407 108.871, 386.737 107.823 C 389.067 106.775, 391.486 104.960, 392.113 103.788 L 393.253 101.658 391.433 100.327 C 388.111 97.898, 373.648 92.817, 363 90.337 C 349.532 87.202, 327.258 86.327, 315.894 88.487 M 164.664 102.258 C 168.093 102.918, 171.788 102.917, 175.664 102.255 L 181.500 101.257 170.500 101.260 L 159.500 101.263 164.664 102.258 M 141.250 105.247 C 139.126 105.928, 138 106.932, 138 108.145 L 138 110 142.378 110 C 147.039 110, 149.648 108.131, 148.643 105.513 C 147.987 103.803, 145.976 103.731, 141.250 105.247 M 205.500 110 C 205.160 110.550, 204.249 111, 203.475 111 C 202.702 111, 198.116 113.550, 193.284 116.667 C 188.453 119.783, 184.402 122.394, 184.282 122.467 C 184.163 122.541, 184.585 124.296, 185.220 126.366 C 186.584 130.811, 188.593 132.145, 196 133.525 L 201.500 134.550 201.800 140.275 C 202.101 146.028, 202.915 146.972, 205.929 145.065 C 206.715 144.568, 208.065 142.248, 208.929 139.911 L 210.500 135.660 215.750 134.111 L 221 132.562 221 125.175 L 221 117.788 223.500 115.821 C 226.747 113.267, 226.652 112.423, 222.972 111.140 C 219.589 109.961, 217.425 110.449, 216.609 112.577 C 216.308 113.360, 214.924 114, 213.531 114 L 211 114 211 111.500 C 211 109.516, 210.496 109, 208.559 109 C 207.216 109, 205.840 109.450, 205.500 110 M 145.500 116.737 C 144.400 117.014, 142.414 117.654, 141.087 118.158 C 137.312 119.592, 139.970 121.188, 144.838 120.410 C 148.002 119.904, 149 119.295, 149 117.872 C 149 115.938, 148.854 115.890, 145.500 116.737 M 406.805 120.750 L 406.500 125.500 402.753 127.500 C 396.948 130.598, 397.893 132, 405.784 132 L 412.569 132 414.342 128.998 L 416.116 125.996 411.901 120.998 C 409.583 118.249, 407.557 116, 407.398 116 C 407.239 116, 406.972 118.138, 406.805 120.750 M 242 122.500 C 242 124.430, 242.513 124.997, 244.250 124.985 C 245.488 124.976, 247.128 124.572, 247.896 124.086 C 248.973 123.403, 248.585 122.837, 246.195 121.601 C 242.164 119.517, 242 119.552, 242 122.500 M 160.750 139.080 C 158.512 140.384, 158.532 142.201, 160.817 145.022 L 162.634 147.266 164.699 146.161 C 165.848 145.546, 166.958 143.742, 167.199 142.096 C 167.544 139.748, 167.207 139.023, 165.567 138.582 C 162.901 137.867, 162.819 137.875, 160.750 139.080 M 91.005 153.681 C 89.800 156.881, 87.947 162.872, 86.886 166.993 C 84.773 175.204, 81.667 197.144, 82.240 199.820 C 82.438 200.744, 83.166 196.550, 83.859 190.500 C 85.421 176.866, 88.046 164.637, 91.366 155.537 C 92.763 151.707, 93.747 148.413, 93.551 148.218 C 93.355 148.022, 92.210 150.481, 91.005 153.681 M 179.386 153.974 C 174.227 154.535, 170.559 156.477, 171.570 158.113 C 171.871 158.601, 175.466 159, 179.559 159 L 187 159 187 157.122 C 187 154.215, 184.952 153.369, 179.386 153.974 M 186.362 162.500 C 185.486 164.781, 186.711 167, 188.846 167 C 191.272 167, 193.400 164.485, 192.643 162.513 C 191.892 160.556, 187.111 160.546, 186.362 162.500 M 173.025 164.695 C 170.697 167.655, 170.629 172.500, 172.916 172.500 C 174.208 172.500, 180.778 164.511, 180.934 162.750 C 180.970 162.338, 179.683 162, 178.073 162 C 176.084 162, 174.465 162.865, 173.025 164.695 M 195 166.839 C 195 169.700, 196.421 171, 199.548 171 C 205.563 171, 204.664 167.907, 198.250 166.536 C 196.291 166.117, 195 166.237, 195 166.839 M 186.312 171.333 C 185.108 171.932, 183.906 173.252, 183.641 174.266 L 183.158 176.111 186.829 175.806 L 190.500 175.500 190.816 172.750 C 191.158 169.782, 190.101 169.450, 186.312 171.333 M 82.166 209.500 C 81.811 223.762, 86.079 248.403, 91.970 266.099 C 108.783 316.613, 154.406 369.595, 201.304 393.071 C 207.818 396.332, 213.902 399, 214.824 398.999 C 216.107 398.999, 216.494 398.093, 216.474 395.136 C 216.454 392.223, 215.644 390.359, 213.183 387.556 L 209.919 383.838 210.582 377.669 C 210.946 374.276, 211.302 371.194, 211.372 370.821 C 211.442 370.447, 210.722 369.547, 209.771 368.821 L 208.041 367.500 207.376 352.455 L 206.711 337.411 201.706 334.098 C 198.953 332.277, 194.892 330.263, 192.683 329.623 C 189.491 328.699, 188.440 327.792, 187.571 325.211 C 186.969 323.424, 183.332 318.533, 179.489 314.342 C 175.645 310.151, 172.261 306.222, 171.969 305.611 C 171.677 305, 171.598 300.810, 171.794 296.301 L 172.149 288.101 177.146 284.301 L 182.142 280.500 181.491 276.122 C 180.472 269.276, 180.476 269.280, 172.199 268.504 L 164.526 267.785 159.029 262.244 C 153.191 256.358, 148.921 254, 144.104 254 C 141.015 254, 138 251.799, 138 249.545 C 138 248.824, 136.988 247.962, 135.750 247.630 C 132.414 246.736, 132 246.844, 132 248.608 C 132 249.860, 131.396 250.065, 129.275 249.533 C 127.776 249.157, 124.063 248.391, 121.025 247.830 C 113.942 246.525, 113.565 246.288, 109.533 240.617 L 106.152 235.862 107.145 233.015 L 108.137 230.167 101.688 222.011 L 95.238 213.855 94.585 208.927 L 93.931 204 91.834 204 L 89.737 204 90.267 207.750 C 90.968 212.706, 92.306 215.580, 96.438 221 C 100.107 225.814, 100.938 229.703, 98.498 230.639 C 95.410 231.824, 92.288 229.933, 88.820 224.777 C 83.499 216.868, 83.544 216.982, 82.907 210 L 82.315 203.500 82.166 209.500 M 296.608 291.250 C 297.057 295.788, 297.363 300.927, 297.289 302.671 L 297.153 305.842 300.666 303.769 C 305.729 300.782, 305.896 299.252, 301.557 295.609 L 297.807 292.461 298.005 288.980 C 298.293 283.907, 298.125 283, 296.896 283 C 296.114 283, 296.030 285.405, 296.608 291.250 M 294.833 327.750 C 294.650 328.163, 292.813 329.760, 290.750 331.301 C 287.921 333.414, 287 334.815, 287 337.005 C 287 339.291, 285.990 340.682, 282.250 343.548 L 277.500 347.187 273.372 346.630 C 270.127 346.191, 268.881 346.474, 267.540 347.955 L 265.836 349.839 266.601 355.669 C 267.022 358.876, 267.397 365.550, 267.433 370.500 L 267.500 379.500 270.336 379.199 C 273.968 378.813, 276 380.524, 276 383.967 C 276 386.521, 273.397 390, 271.486 390 C 271.014 390, 269.624 390.944, 268.396 392.097 C 266.661 393.727, 265.464 394.041, 263.023 393.505 L 259.882 392.815 260.679 389.658 C 261.656 385.788, 261.327 377.406, 260.113 375.237 C 259.400 373.964, 258.566 374.799, 255.992 379.360 C 253.710 383.403, 251.632 385.657, 248.903 387.049 L 245.042 389.019 247.103 392.973 C 248.236 395.147, 248.875 397.393, 248.523 397.963 C 248.103 398.643, 250.415 399, 255.241 399 C 259.288 399, 263.027 399.400, 263.550 399.890 C 264.650 400.920, 280.167 404.523, 287.500 405.450 C 290.642 405.847, 291.997 405.743, 291.147 405.168 C 290.092 404.456, 290.045 403.785, 290.932 402.127 C 291.558 400.957, 291.861 400, 291.605 400 C 291.349 400, 291.514 398.696, 291.971 397.102 C 292.428 395.508, 292.403 390.670, 291.914 386.352 C 291.336 381.242, 291.386 377.402, 292.056 375.354 C 292.623 373.624, 293.234 365.717, 293.414 357.782 C 293.711 344.701, 294.637 338.693, 297.111 333.783 C 297.612 332.788, 297.571 331.001, 297.013 329.533 C 296.024 326.932, 295.417 326.436, 294.833 327.750 M 307.711 359.658 C 306.519 361.588, 304.882 374.531, 305.448 377.560 L 306.019 380.620 302.651 382.226 C 300.188 383.401, 299.111 384.694, 298.642 387.041 C 297.659 391.955, 297.878 397, 299.073 397 C 299.664 397, 299.988 397.788, 299.795 398.750 C 299.601 399.712, 300.243 401.372, 301.221 402.439 C 303.455 404.873, 303.462 405.733, 301.250 406.311 C 300.288 406.562, 301.075 406.825, 303 406.894 C 304.925 406.963, 309.294 406.039, 312.708 404.840 L 318.917 402.660 317.246 401.438 C 316.046 400.560, 315.861 399.834, 316.590 398.858 C 318.266 396.614, 318.251 391.267, 316.555 386.239 C 315.338 382.630, 314.187 381.142, 311.729 380 C 309.189 378.820, 308.558 377.966, 308.773 376 C 308.923 374.625, 309.298 371.250, 309.606 368.500 C 310.159 363.559, 308.908 357.721, 307.711 359.658"
     stroke="none"
     fill="#c21f2f"
     fill-rule="evenodd"
     id="path22" />
  <path
     style="mix-blend-mode:overlay;fill:#77b888;fill-opacity:1;fill-rule:evenodd;stroke:#000000;stroke-width:0;stroke-dasharray:none;stroke-opacity:1;paint-order:markers stroke fill"
     d="m 254.28227,108.42883 c 0.0854,-0.42722 0.10335,-0.87372 0.25633,-1.28166 0.10817,-0.28846 0.37489,-0.49345 0.51267,-0.769 0.38366,-0.76734 0.22017,-1.1732 0.51266,-2.05067 0.24168,-0.72502 0.7415,-1.34108 1.02533,-2.05066 0.46939,-1.17347 0.58747,-2.421007 1.02534,-3.588661 0.66017,-1.760467 1.56656,-3.398989 2.30699,-5.126659 0.28758,-0.671009 0.46028,-1.389117 0.769,-2.050663 0.93208,-1.997304 2.1365,-3.891394 3.076,-5.895658 1.83284,-3.91007 3.59731,-7.862827 5.38299,-11.791315 0.45964,-1.011213 0.78491,-2.082487 1.28166,-3.075995 0.44563,-0.891246 1.03875,-1.700981 1.538,-2.563329 4.91686,-8.492753 10.3614,-16.941538 17.94331,-23.326297 3.76677,-3.172022 8.31705,-6.114026 12.56031,-8.458987 0.87533,-0.483734 1.89402,-0.646661 2.81966,-1.025331 0.95556,-0.390911 1.8641,-0.890754 2.81966,-1.281665 3.51651,-1.43857 2.16267,-0.727762 5.89566,-1.794331 1.97518,-0.564337 3.90616,-1.282745 5.89566,-1.79433 3.25269,-0.836407 6.67732,-0.979878 9.99698,-1.281665 18.16968,-1.651789 0.0748,-0.38266 11.27865,-0.768999 3.76722,-0.129904 7.50982,-0.558345 11.27865,0 4.94034,0.731903 10.51784,2.905468 14.35464,6.151991 3.00413,2.541953 0.67065,0.926979 3.076,3.332328 0.38687,0.386865 0.875,0.659334 1.28166,1.025332 1.66892,1.50202 3.1317,3.187401 4.10133,5.126658 0.21598,0.431967 0.59259,0.496102 0.769,1.025332 0.6954,2.086207 -2.18039,4.999769 -3.58866,6.15199 -2.13741,1.748789 -4.30592,3.685206 -6.66466,5.126659 -0.81513,0.498139 -1.72628,0.821289 -2.56333,1.281665 -4.6185,2.540179 -9.08377,5.462385 -13.58564,8.202653 -3.11157,1.893997 -6.21962,3.750643 -9.48432,5.382992 -1.09422,0.54711 -2.25195,0.964044 -3.33233,1.537998 -3.47999,1.848744 -6.63553,3.832511 -10.25332,5.382991 -3.8379,1.644818 -7.71209,3.183757 -11.53498,4.870326 -2.65908,1.173125 -5.25634,2.488216 -7.94632,3.588661 -3.48234,1.424595 -7.03758,2.639402 -10.50965,4.101327 -5.12443,2.157654 -10.16686,4.453404 -15.37997,6.408323 -1.93001,0.723753 -3.9983,1.003764 -5.89566,1.794331 -0.52909,0.220453 -1.00891,0.548545 -1.538,0.768998 -0.49883,0.207845 -1.05465,0.270993 -1.538,0.51267 -4.8004,2.4002 3.05006,-0.573787 -4.35766,2.30699 -1.15949,0.45092 -2.44888,0.52668 -3.58866,1.02533 -0.80594,0.35261 -1.52016,0.88825 -2.30699,1.28167 -4.16203,2.08101 1.11961,-0.69955 -2.307,0.769 -0.22647,0.0971 -0.9285,0.69836 -1.28167,0.769 -0.57793,0.11558 -0.82454,-0.20079 -1.28166,0.25633 -0.1351,0.1351 -0.12123,0.37757 -0.25633,0.51267 -0.0604,0.0604 -0.17991,-0.0382 -0.25634,0 -1.06679,0.53339 0.27403,-0.0177 -0.25633,0.51266 -0.0604,0.0604 -0.17991,-0.0382 -0.25633,0 -1.03406,0.51703 0.12689,0.38476 -1.79433,0.769 z"
     id="path4761" />
  <path
     style="mix-blend-mode:overlay;fill:#77b888;fill-opacity:1;fill-rule:evenodd;stroke:#000000;stroke-width:0;stroke-dasharray:none;stroke-opacity:1;paint-order:markers stroke fill"
     d="m 254.28227,108.42883 c 0.0854,-0.42722 0.10335,-0.87372 0.25633,-1.28166 0.10817,-0.28846 0.37489,-0.49345 0.51267,-0.769 0.38366,-0.76734 0.22017,-1.1732 0.51266,-2.05067 0.24168,-0.72502 0.7415,-1.34108 1.02533,-2.05066 0.46939,-1.17347 0.58747,-2.421007 1.02534,-3.588661 0.66017,-1.760467 1.56656,-3.398989 2.30699,-5.126659 0.28758,-0.671009 0.46028,-1.389117 0.769,-2.050663 0.93208,-1.997304 2.1365,-3.891394 3.076,-5.895658 1.83284,-3.91007 3.59731,-7.862827 5.38299,-11.791315 0.45964,-1.011213 0.78491,-2.082487 1.28166,-3.075995 0.44563,-0.891246 1.03875,-1.700981 1.538,-2.563329 4.91686,-8.492753 10.3614,-16.941538 17.94331,-23.326297 3.76677,-3.172022 8.31705,-6.114026 12.56031,-8.458987 0.87533,-0.483734 1.89402,-0.646661 2.81966,-1.025331 0.95556,-0.390911 1.8641,-0.890754 2.81966,-1.281665 3.51651,-1.43857 2.16267,-0.727762 5.89566,-1.794331 1.97518,-0.564337 3.90616,-1.282745 5.89566,-1.79433 3.25269,-0.836407 6.67732,-0.979878 9.99698,-1.281665 18.16968,-1.651789 0.0748,-0.38266 11.27865,-0.768999 3.76722,-0.129904 7.50982,-0.558345 11.27865,0 4.94034,0.731903 10.51784,2.905468 14.35464,6.151991 3.00413,2.541953 0.67065,0.926979 3.076,3.332328 0.38687,0.386865 0.875,0.659334 1.28166,1.025332 1.66892,1.50202 3.1317,3.187401 4.10133,5.126658 0.21598,0.431967 0.59259,0.496102 0.769,1.025332 0.6954,2.086207 -2.18039,4.999769 -3.58866,6.15199 -2.13741,1.748789 -4.30592,3.685206 -6.66466,5.126659 -0.81513,0.498139 -1.72628,0.821289 -2.56333,1.281665 -4.6185,2.540179 -9.08377,5.462385 -13.58564,8.202653 -3.11157,1.893997 -6.21962,3.750643 -9.48432,5.382992 -1.09422,0.54711 -2.25195,0.964044 -3.33233,1.537998 -3.47999,1.848744 -6.63553,3.832511 -10.25332,5.382991 -3.8379,1.644818 -7.71209,3.183757 -11.53498,4.870326 -2.65908,1.173125 -5.25634,2.488216 -7.94632,3.588661 -3.48234,1.424595 -7.03758,2.639402 -10.50965,4.101327 -5.12443,2.157654 -10.16686,4.453404 -15.37997,6.408323 -1.93001,0.723753 -3.9983,1.003764 -5.89566,1.794331 -0.52909,0.220453 -1.00891,0.548545 -1.538,0.768998 -0.49883,0.207845 -1.05465,0.270993 -1.538,0.51267 -4.8004,2.4002 3.05006,-0.573787 -4.35766,2.30699 -1.15949,0.45092 -2.44888,0.52668 -3.58866,1.02533 -0.80594,0.35261 -1.52016,0.88825 -2.30699,1.28167 -4.16203,2.08101 1.11961,-0.69955 -2.307,0.769 -0.22647,0.0971 -0.9285,0.69836 -1.28167,0.769 -0.57793,0.11558 -0.82454,-0.20079 -1.28166,0.25633 -0.1351,0.1351 -0.12123,0.37757 -0.25633,0.51267 -0.0604,0.0604 -0.17991,-0.0382 -0.25634,0 -1.06679,0.53339 0.27403,-0.0177 -0.25633,0.51266 -0.0604,0.0604 -0.17991,-0.0382 -0.25633,0 -1.03406,0.51703 0.12689,0.38476 -1.79433,0.769 z"
     id="path6286" />
  <path
     style="fill:#77b888;fill-opacity:1;fill-rule:evenodd;stroke:#000000;stroke-width:0;stroke-dasharray:none;stroke-opacity:1;paint-order:markers stroke fill"
     d="M 393.50407,327.43671 439.81466,196.52547"
     id="path6342" />
</svg>
